<svg width="507" height="79" viewBox="0 0 507 79" fill="none" xmlns="http://www.w3.org/2000/svg">
<rect x="0.881348" y="0.5" width="505.619" height="77.889" rx="38.9445" fill="black"/>
<circle cx="467.555" cy="39.4445" r="38.9445" fill="#ECECEB"/>
<path d="M39.937 49.27C38.461 49.27 37.102 49.036 35.86 48.568C34.636 48.082 33.565 47.407 32.647 46.543C31.729 45.661 31.018 44.626 30.514 43.438C30.01 42.25 29.758 40.954 29.758 39.55C29.758 38.146 30.01 36.85 30.514 35.662C31.018 34.474 31.729 33.448 32.647 32.584C33.583 31.702 34.672 31.027 35.914 30.559C37.156 30.073 38.515 29.83 39.991 29.83C41.593 29.83 43.033 30.091 44.311 30.613C45.607 31.135 46.696 31.9 47.578 32.908L45.364 35.068C44.626 34.33 43.825 33.79 42.961 33.448C42.115 33.088 41.179 32.908 40.153 32.908C39.163 32.908 38.245 33.07 37.399 33.394C36.553 33.718 35.824 34.177 35.212 34.771C34.6 35.365 34.123 36.067 33.781 36.877C33.457 37.687 33.295 38.578 33.295 39.55C33.295 40.504 33.457 41.386 33.781 42.196C34.123 43.006 34.6 43.717 35.212 44.329C35.824 44.923 36.544 45.382 37.372 45.706C38.2 46.03 39.118 46.192 40.126 46.192C41.062 46.192 41.962 46.048 42.826 45.76C43.708 45.454 44.545 44.95 45.337 44.248L47.335 46.867C46.345 47.659 45.193 48.262 43.879 48.676C42.583 49.072 41.269 49.27 39.937 49.27ZM44.014 46.408V39.334H47.335V46.867L44.014 46.408ZM58.5255 49.189C57.0495 49.189 55.7355 48.874 54.5835 48.244C53.4315 47.596 52.5225 46.714 51.8565 45.598C51.1905 44.482 50.8575 43.213 50.8575 41.791C50.8575 40.351 51.1905 39.082 51.8565 37.984C52.5225 36.868 53.4315 35.995 54.5835 35.365C55.7355 34.735 57.0495 34.42 58.5255 34.42C60.0195 34.42 61.3425 34.735 62.4945 35.365C63.6645 35.995 64.5735 36.859 65.2215 37.957C65.8875 39.055 66.2205 40.333 66.2205 41.791C66.2205 43.213 65.8875 44.482 65.2215 45.598C64.5735 46.714 63.6645 47.596 62.4945 48.244C61.3425 48.874 60.0195 49.189 58.5255 49.189ZM58.5255 46.3C59.3535 46.3 60.0915 46.12 60.7395 45.76C61.3875 45.4 61.8915 44.878 62.2515 44.194C62.6295 43.51 62.8185 42.709 62.8185 41.791C62.8185 40.855 62.6295 40.054 62.2515 39.388C61.8915 38.704 61.3875 38.182 60.7395 37.822C60.0915 37.462 59.3625 37.282 58.5525 37.282C57.7245 37.282 56.9865 37.462 56.3385 37.822C55.7085 38.182 55.2045 38.704 54.8265 39.388C54.4485 40.054 54.2595 40.855 54.2595 41.791C54.2595 42.709 54.4485 43.51 54.8265 44.194C55.2045 44.878 55.7085 45.4 56.3385 45.76C56.9865 46.12 57.7155 46.3 58.5255 46.3ZM75.2798 49.189C73.6958 49.189 72.4718 48.784 71.6078 47.974C70.7438 47.146 70.3118 45.931 70.3118 44.329V31.396H73.6868V44.248C73.6868 44.932 73.8578 45.463 74.1998 45.841C74.5598 46.219 75.0548 46.408 75.6848 46.408C76.4408 46.408 77.0708 46.21 77.5748 45.814L78.5198 48.217C78.1238 48.541 77.6378 48.784 77.0618 48.946C76.4858 49.108 75.8918 49.189 75.2798 49.189ZM67.9358 37.39V34.69H77.5478V37.39H67.9358ZM94.9951 49.189C93.4111 49.189 92.1871 48.784 91.3231 47.974C90.4591 47.146 90.0271 45.931 90.0271 44.329V31.396H93.4021V44.248C93.4021 44.932 93.5731 45.463 93.9151 45.841C94.2751 46.219 94.7701 46.408 95.4001 46.408C96.1561 46.408 96.7861 46.21 97.2901 45.814L98.2351 48.217C97.8391 48.541 97.3531 48.784 96.7771 48.946C96.2011 49.108 95.6071 49.189 94.9951 49.189ZM87.6511 37.39V34.69H97.2631V37.39H87.6511ZM101.416 49V34.582H104.791V49H101.416ZM103.117 32.206C102.487 32.206 101.965 32.008 101.551 31.612C101.155 31.216 100.957 30.739 100.957 30.181C100.957 29.605 101.155 29.128 101.551 28.75C101.965 28.354 102.487 28.156 103.117 28.156C103.747 28.156 104.26 28.345 104.656 28.723C105.07 29.083 105.277 29.542 105.277 30.1C105.277 30.694 105.079 31.198 104.683 31.612C104.287 32.008 103.765 32.206 103.117 32.206ZM109.626 49V34.582H112.839V38.551L112.461 37.39C112.893 36.418 113.568 35.68 114.486 35.176C115.422 34.672 116.583 34.42 117.969 34.42V37.633C117.825 37.597 117.69 37.579 117.564 37.579C117.438 37.561 117.312 37.552 117.186 37.552C115.908 37.552 114.891 37.93 114.135 38.686C113.379 39.424 113.001 40.531 113.001 42.007V49H109.626ZM127.882 49.189C126.28 49.189 124.876 48.874 123.67 48.244C122.482 47.596 121.555 46.714 120.889 45.598C120.241 44.482 119.917 43.213 119.917 41.791C119.917 40.351 120.232 39.082 120.862 37.984C121.51 36.868 122.392 35.995 123.508 35.365C124.642 34.735 125.929 34.42 127.369 34.42C128.773 34.42 130.024 34.726 131.122 35.338C132.22 35.95 133.084 36.814 133.714 37.93C134.344 39.046 134.659 40.36 134.659 41.872C134.659 42.016 134.65 42.178 134.632 42.358C134.632 42.538 134.623 42.709 134.605 42.871H122.59V40.63H132.823L131.5 41.332C131.518 40.504 131.347 39.775 130.987 39.145C130.627 38.515 130.132 38.02 129.502 37.66C128.89 37.3 128.179 37.12 127.369 37.12C126.541 37.12 125.812 37.3 125.182 37.66C124.57 38.02 124.084 38.524 123.724 39.172C123.382 39.802 123.211 40.549 123.211 41.413V41.953C123.211 42.817 123.409 43.582 123.805 44.248C124.201 44.914 124.759 45.427 125.479 45.787C126.199 46.147 127.027 46.327 127.963 46.327C128.773 46.327 129.502 46.201 130.15 45.949C130.798 45.697 131.374 45.301 131.878 44.761L133.687 46.84C133.039 47.596 132.22 48.181 131.23 48.595C130.258 48.991 129.142 49.189 127.882 49.189ZM144.408 49.189C143.022 49.189 141.771 48.883 140.655 48.271C139.557 47.641 138.693 46.777 138.063 45.679C137.433 44.581 137.118 43.285 137.118 41.791C137.118 40.297 137.433 39.001 138.063 37.903C138.693 36.805 139.557 35.95 140.655 35.338C141.771 34.726 143.022 34.42 144.408 34.42C145.614 34.42 146.694 34.69 147.648 35.23C148.602 35.752 149.358 36.553 149.916 37.633C150.474 38.713 150.753 40.099 150.753 41.791C150.753 43.465 150.483 44.851 149.943 45.949C149.403 47.029 148.656 47.839 147.702 48.379C146.748 48.919 145.65 49.189 144.408 49.189ZM144.813 46.3C145.623 46.3 146.343 46.12 146.973 45.76C147.621 45.4 148.134 44.878 148.512 44.194C148.908 43.51 149.106 42.709 149.106 41.791C149.106 40.855 148.908 40.054 148.512 39.388C148.134 38.704 147.621 38.182 146.973 37.822C146.343 37.462 145.623 37.282 144.813 37.282C144.003 37.282 143.274 37.462 142.626 37.822C141.996 38.182 141.483 38.704 141.087 39.388C140.709 40.054 140.52 40.855 140.52 41.791C140.52 42.709 140.709 43.51 141.087 44.194C141.483 44.878 141.996 45.4 142.626 45.76C143.274 46.12 144.003 46.3 144.813 46.3ZM149.187 49V45.598L149.322 41.764L149.052 37.93V28.966H152.4V49H149.187ZM156.356 53.077L157.922 47.11L158.381 49.108C157.751 49.108 157.22 48.919 156.788 48.541C156.374 48.145 156.167 47.614 156.167 46.948C156.167 46.264 156.374 45.724 156.788 45.328C157.22 44.914 157.742 44.707 158.354 44.707C158.984 44.707 159.506 44.914 159.92 45.328C160.334 45.742 160.541 46.282 160.541 46.948C160.541 47.128 160.523 47.326 160.487 47.542C160.451 47.74 160.388 47.974 160.298 48.244C160.226 48.514 160.1 48.856 159.92 49.27L158.543 53.077H156.356ZM175.297 49L170.005 34.582H173.191L177.727 47.299H176.215L180.967 34.582H183.802L188.419 47.299H186.934L191.605 34.582H194.602L189.283 49H186.043L181.831 37.741H182.83L178.537 49H175.297ZM205.762 49V46.084L205.573 45.463V40.36C205.573 39.37 205.276 38.605 204.682 38.065C204.088 37.507 203.188 37.228 201.982 37.228C201.172 37.228 200.371 37.354 199.579 37.606C198.805 37.858 198.148 38.209 197.608 38.659L196.285 36.202C197.059 35.608 197.977 35.167 199.039 34.879C200.119 34.573 201.235 34.42 202.387 34.42C204.475 34.42 206.086 34.924 207.22 35.932C208.372 36.922 208.948 38.461 208.948 40.549V49H205.762ZM201.226 49.189C200.146 49.189 199.201 49.009 198.391 48.649C197.581 48.271 196.951 47.758 196.501 47.11C196.069 46.444 195.853 45.697 195.853 44.869C195.853 44.059 196.042 43.33 196.42 42.682C196.816 42.034 197.455 41.521 198.337 41.143C199.219 40.765 200.389 40.576 201.847 40.576H206.032V42.817H202.09C200.938 42.817 200.164 43.006 199.768 43.384C199.372 43.744 199.174 44.194 199.174 44.734C199.174 45.346 199.417 45.832 199.903 46.192C200.389 46.552 201.064 46.732 201.928 46.732C202.756 46.732 203.494 46.543 204.142 46.165C204.808 45.787 205.285 45.229 205.573 44.491L206.14 46.516C205.816 47.362 205.231 48.019 204.385 48.487C203.557 48.955 202.504 49.189 201.226 49.189ZM221.866 34.42C223.018 34.42 224.044 34.645 224.944 35.095C225.862 35.545 226.582 36.238 227.104 37.174C227.626 38.092 227.887 39.28 227.887 40.738V49H224.512V41.17C224.512 39.892 224.206 38.938 223.594 38.308C223 37.678 222.163 37.363 221.083 37.363C220.291 37.363 219.589 37.525 218.977 37.849C218.365 38.173 217.888 38.659 217.546 39.307C217.222 39.937 217.06 40.738 217.06 41.71V49H213.685V34.582H216.898V38.47L216.331 37.282C216.835 36.364 217.564 35.662 218.518 35.176C219.49 34.672 220.606 34.42 221.866 34.42ZM240.754 34.42C241.906 34.42 242.932 34.645 243.832 35.095C244.75 35.545 245.47 36.238 245.992 37.174C246.514 38.092 246.775 39.28 246.775 40.738V49H243.4V41.17C243.4 39.892 243.094 38.938 242.482 38.308C241.888 37.678 241.051 37.363 239.971 37.363C239.179 37.363 238.477 37.525 237.865 37.849C237.253 38.173 236.776 38.659 236.434 39.307C236.11 39.937 235.948 40.738 235.948 41.71V49H232.573V34.582H235.786V38.47L235.219 37.282C235.723 36.364 236.452 35.662 237.406 35.176C238.378 34.672 239.494 34.42 240.754 34.42ZM260.345 49V46.084L260.156 45.463V40.36C260.156 39.37 259.859 38.605 259.265 38.065C258.671 37.507 257.771 37.228 256.565 37.228C255.755 37.228 254.954 37.354 254.162 37.606C253.388 37.858 252.731 38.209 252.191 38.659L250.868 36.202C251.642 35.608 252.56 35.167 253.622 34.879C254.702 34.573 255.818 34.42 256.97 34.42C259.058 34.42 260.669 34.924 261.803 35.932C262.955 36.922 263.531 38.461 263.531 40.549V49H260.345ZM255.809 49.189C254.729 49.189 253.784 49.009 252.974 48.649C252.164 48.271 251.534 47.758 251.084 47.11C250.652 46.444 250.436 45.697 250.436 44.869C250.436 44.059 250.625 43.33 251.003 42.682C251.399 42.034 252.038 41.521 252.92 41.143C253.802 40.765 254.972 40.576 256.43 40.576H260.615V42.817H256.673C255.521 42.817 254.747 43.006 254.351 43.384C253.955 43.744 253.757 44.194 253.757 44.734C253.757 45.346 254 45.832 254.486 46.192C254.972 46.552 255.647 46.732 256.511 46.732C257.339 46.732 258.077 46.543 258.725 46.165C259.391 45.787 259.868 45.229 260.156 44.491L260.723 46.516C260.399 47.362 259.814 48.019 258.968 48.487C258.14 48.955 257.087 49.189 255.809 49.189ZM282.668 54.427C281.336 54.427 280.031 54.247 278.753 53.887C277.493 53.545 276.458 53.041 275.648 52.375L277.16 49.837C277.79 50.359 278.582 50.773 279.536 51.079C280.508 51.403 281.489 51.565 282.479 51.565C284.063 51.565 285.224 51.196 285.962 50.458C286.7 49.738 287.069 48.649 287.069 47.191V44.626L287.339 41.359L287.231 38.092V34.582H290.444V46.813C290.444 49.423 289.778 51.34 288.446 52.564C287.114 53.806 285.188 54.427 282.668 54.427ZM282.236 48.352C280.868 48.352 279.626 48.064 278.51 47.488C277.412 46.894 276.539 46.075 275.891 45.031C275.261 43.987 274.946 42.763 274.946 41.359C274.946 39.973 275.261 38.758 275.891 37.714C276.539 36.67 277.412 35.86 278.51 35.284C279.626 34.708 280.868 34.42 282.236 34.42C283.46 34.42 284.558 34.663 285.53 35.149C286.502 35.635 287.276 36.391 287.852 37.417C288.446 38.443 288.743 39.757 288.743 41.359C288.743 42.961 288.446 44.284 287.852 45.328C287.276 46.354 286.502 47.119 285.53 47.623C284.558 48.109 283.46 48.352 282.236 48.352ZM282.749 45.49C283.595 45.49 284.351 45.319 285.017 44.977C285.683 44.617 286.196 44.131 286.556 43.519C286.934 42.889 287.123 42.169 287.123 41.359C287.123 40.549 286.934 39.838 286.556 39.226C286.196 38.596 285.683 38.119 285.017 37.795C284.351 37.453 283.595 37.282 282.749 37.282C281.903 37.282 281.138 37.453 280.454 37.795C279.788 38.119 279.266 38.596 278.888 39.226C278.528 39.838 278.348 40.549 278.348 41.359C278.348 42.169 278.528 42.889 278.888 43.519C279.266 44.131 279.788 44.617 280.454 44.977C281.138 45.319 281.903 45.49 282.749 45.49ZM301.766 49.189C300.29 49.189 298.976 48.874 297.824 48.244C296.672 47.596 295.763 46.714 295.097 45.598C294.431 44.482 294.098 43.213 294.098 41.791C294.098 40.351 294.431 39.082 295.097 37.984C295.763 36.868 296.672 35.995 297.824 35.365C298.976 34.735 300.29 34.42 301.766 34.42C303.26 34.42 304.583 34.735 305.735 35.365C306.905 35.995 307.814 36.859 308.462 37.957C309.128 39.055 309.461 40.333 309.461 41.791C309.461 43.213 309.128 44.482 308.462 45.598C307.814 46.714 306.905 47.596 305.735 48.244C304.583 48.874 303.26 49.189 301.766 49.189ZM301.766 46.3C302.594 46.3 303.332 46.12 303.98 45.76C304.628 45.4 305.132 44.878 305.492 44.194C305.87 43.51 306.059 42.709 306.059 41.791C306.059 40.855 305.87 40.054 305.492 39.388C305.132 38.704 304.628 38.182 303.98 37.822C303.332 37.462 302.603 37.282 301.793 37.282C300.965 37.282 300.227 37.462 299.579 37.822C298.949 38.182 298.445 38.704 298.067 39.388C297.689 40.054 297.5 40.855 297.5 41.791C297.5 42.709 297.689 43.51 298.067 44.194C298.445 44.878 298.949 45.4 299.579 45.76C300.227 46.12 300.956 46.3 301.766 46.3ZM329.141 34.42C330.293 34.42 331.319 34.645 332.219 35.095C333.137 35.545 333.857 36.238 334.379 37.174C334.901 38.092 335.162 39.28 335.162 40.738V49H331.787V41.17C331.787 39.892 331.481 38.938 330.869 38.308C330.275 37.678 329.438 37.363 328.358 37.363C327.566 37.363 326.864 37.525 326.252 37.849C325.64 38.173 325.163 38.659 324.821 39.307C324.497 39.937 324.335 40.738 324.335 41.71V49H320.96V28.966H324.335V38.47L323.606 37.282C324.11 36.364 324.839 35.662 325.793 35.176C326.765 34.672 327.881 34.42 329.141 34.42ZM346.355 49.189C344.879 49.189 343.565 48.874 342.413 48.244C341.261 47.596 340.352 46.714 339.686 45.598C339.02 44.482 338.687 43.213 338.687 41.791C338.687 40.351 339.02 39.082 339.686 37.984C340.352 36.868 341.261 35.995 342.413 35.365C343.565 34.735 344.879 34.42 346.355 34.42C347.849 34.42 349.172 34.735 350.324 35.365C351.494 35.995 352.403 36.859 353.051 37.957C353.717 39.055 354.05 40.333 354.05 41.791C354.05 43.213 353.717 44.482 353.051 45.598C352.403 46.714 351.494 47.596 350.324 48.244C349.172 48.874 347.849 49.189 346.355 49.189ZM346.355 46.3C347.183 46.3 347.921 46.12 348.569 45.76C349.217 45.4 349.721 44.878 350.081 44.194C350.459 43.51 350.648 42.709 350.648 41.791C350.648 40.855 350.459 40.054 350.081 39.388C349.721 38.704 349.217 38.182 348.569 37.822C347.921 37.462 347.192 37.282 346.382 37.282C345.554 37.282 344.816 37.462 344.168 37.822C343.538 38.182 343.034 38.704 342.656 39.388C342.278 40.054 342.089 40.855 342.089 41.791C342.089 42.709 342.278 43.51 342.656 44.194C343.034 44.878 343.538 45.4 344.168 45.76C344.816 46.12 345.545 46.3 346.355 46.3ZM375.88 34.42C377.032 34.42 378.049 34.645 378.931 35.095C379.831 35.545 380.533 36.238 381.037 37.174C381.541 38.092 381.793 39.28 381.793 40.738V49H378.418V41.17C378.418 39.892 378.139 38.938 377.581 38.308C377.023 37.678 376.222 37.363 375.178 37.363C374.44 37.363 373.783 37.525 373.207 37.849C372.649 38.173 372.208 38.65 371.884 39.28C371.578 39.91 371.425 40.711 371.425 41.683V49H368.05V41.17C368.05 39.892 367.771 38.938 367.213 38.308C366.655 37.678 365.854 37.363 364.81 37.363C364.072 37.363 363.415 37.525 362.839 37.849C362.281 38.173 361.84 38.65 361.516 39.28C361.21 39.91 361.057 40.711 361.057 41.683V49H357.682V34.582H360.895V38.416L360.328 37.282C360.814 36.346 361.516 35.635 362.434 35.149C363.37 34.663 364.432 34.42 365.62 34.42C366.97 34.42 368.14 34.753 369.13 35.419C370.138 36.085 370.804 37.093 371.128 38.443L369.805 37.984C370.273 36.904 371.047 36.04 372.127 35.392C373.207 34.744 374.458 34.42 375.88 34.42ZM393.315 49.189C391.713 49.189 390.309 48.874 389.103 48.244C387.915 47.596 386.988 46.714 386.322 45.598C385.674 44.482 385.35 43.213 385.35 41.791C385.35 40.351 385.665 39.082 386.295 37.984C386.943 36.868 387.825 35.995 388.941 35.365C390.075 34.735 391.362 34.42 392.802 34.42C394.206 34.42 395.457 34.726 396.555 35.338C397.653 35.95 398.517 36.814 399.147 37.93C399.777 39.046 400.092 40.36 400.092 41.872C400.092 42.016 400.083 42.178 400.065 42.358C400.065 42.538 400.056 42.709 400.038 42.871H388.023V40.63H398.256L396.933 41.332C396.951 40.504 396.78 39.775 396.42 39.145C396.06 38.515 395.565 38.02 394.935 37.66C394.323 37.3 393.612 37.12 392.802 37.12C391.974 37.12 391.245 37.3 390.615 37.66C390.003 38.02 389.517 38.524 389.157 39.172C388.815 39.802 388.644 40.549 388.644 41.413V41.953C388.644 42.817 388.842 43.582 389.238 44.248C389.634 44.914 390.192 45.427 390.912 45.787C391.632 46.147 392.46 46.327 393.396 46.327C394.206 46.327 394.935 46.201 395.583 45.949C396.231 45.697 396.807 45.301 397.311 44.761L399.12 46.84C398.472 47.596 397.653 48.181 396.663 48.595C395.691 48.991 394.575 49.189 393.315 49.189ZM406.306 42.736C406.306 42.07 406.414 41.485 406.63 40.981C406.846 40.477 407.125 40.027 407.467 39.631C407.809 39.235 408.169 38.866 408.547 38.524C408.943 38.182 409.312 37.849 409.654 37.525C409.996 37.201 410.275 36.859 410.491 36.499C410.707 36.139 410.815 35.734 410.815 35.284C410.815 34.528 410.509 33.916 409.897 33.448C409.285 32.98 408.466 32.746 407.44 32.746C406.45 32.746 405.586 32.926 404.848 33.286C404.128 33.646 403.525 34.159 403.039 34.825L400.42 33.124C401.176 32.098 402.166 31.297 403.39 30.721C404.614 30.127 406.063 29.83 407.737 29.83C409.051 29.83 410.203 30.028 411.193 30.424C412.183 30.802 412.957 31.36 413.515 32.098C414.073 32.818 414.352 33.7 414.352 34.744C414.352 35.464 414.235 36.094 414.001 36.634C413.785 37.174 413.497 37.651 413.137 38.065C412.795 38.461 412.426 38.839 412.03 39.199C411.634 39.541 411.256 39.883 410.896 40.225C410.554 40.567 410.275 40.936 410.059 41.332C409.843 41.728 409.735 42.196 409.735 42.736H406.306ZM408.034 49.189C407.404 49.189 406.882 48.982 406.468 48.568C406.072 48.154 405.874 47.659 405.874 47.083C405.874 46.507 406.072 46.021 406.468 45.625C406.882 45.211 407.404 45.004 408.034 45.004C408.664 45.004 409.177 45.211 409.573 45.625C409.969 46.021 410.167 46.507 410.167 47.083C410.167 47.659 409.969 48.154 409.573 48.568C409.177 48.982 408.664 49.189 408.034 49.189Z" fill="#ECECEB"/>
<path d="M481.144 38.972L468.028 25.8566L454.913 38.972" stroke="black" stroke-width="4.5" stroke-linecap="round" stroke-linejoin="round"/>
<path d="M481.144 52.0874L468.028 38.9719L454.913 52.0874" stroke="black" stroke-width="4.5" stroke-linecap="round" stroke-linejoin="round"/>
</svg>
